<?xml version="1.0" encoding="UTF-8"?><svg xmlns="http://www.w3.org/2000/svg" viewBox="0 0 504 473"><defs><style>.d{fill:#284538;}</style></defs><g id="a"/><g id="b"><g id="c"><g><path class="d" d="M463,269.4V0H41V269.4L0,410.4v62.6H504v-62.6l-41-141ZM63,22H441v238H63V22Zm-2.7,260H443.8l34.6,119H25.7l34.6-119Zm421.7,169H22v-28H482v28Z"/><rect class="d" x="226" y="341" width="52" height="22"/><path class="d" d="M288.9,137.8l-4.1-1.9,2.3-3.9c3.8-6.4,5.9-13.7,5.9-21.1v-20c0-22.6-18.4-41-41-41s-41,18.4-41,41v20c0,7.5,2,14.8,5.9,21.1l2.3,3.9-4.1,1.9c-32.9,14.7-54.1,47.3-54.1,83.2v11h182v-11c0-35.9-21.2-68.5-54.1-83.2Zm-55.9-46.8c0-10.5,8.5-19,19-19s19,8.5,19,19v20c0,10.5-8.5,19-19,19s-19-8.5-19-19v-20Zm-49.3,119l1.2-4.9c7.4-31.2,35-53.1,67.2-53.1s59.7,21.8,67.2,53.1l1.2,4.9H183.7Z"/></g></g></g></svg>