<?xml version="1.0" encoding="UTF-8"?><svg xmlns="http://www.w3.org/2000/svg" viewBox="0 0 516.04 515.9"><g id="a"/><g id="b"><g id="c"><g><path d="M501.66,395.3l-103.6-69.1c-5.3-3.5-11.5-5.3-17.8-5.3-10,0-19.3,4.5-25.4,12.4l-30.2,38.8c-2.1,2.8-5.3,4.3-8.7,4.3-1.8,0-3.6-.5-5.2-1.4l-5.7-3.2-.2-.1c-18.9-10.3-42.4-23.2-89.9-70.6-47.9-47.8-60.5-71.2-70.7-90l-3.1-5.7c-2.7-4.7-1.5-10.8,2.9-14.1l38.8-30.2c13.2-10.3,16.3-29.3,7-43.2L120.56,14.4C114.56,5.4,104.56,0,93.76,0c-5.8,0-11.5,1.6-16.4,4.6L34.06,30.6c-14,8.3-24.3,21.5-28.7,37.3C-4.34,103.2-.84,142.9,15.66,186.1c21.6,56.5,65.7,118.2,130.9,183.4,53,53,103.9,92.1,151.3,116.4,38.9,19.9,75.8,30,109.6,30h1.1c13.2,0,26.5-1.8,39.5-5.3,15.8-4.5,29.1-14.7,37.4-28.8l26.1-43.3c8.7-14.6,4.4-33.6-9.9-43.2ZM122.36,215.8l3.1,5.6c10.9,20.1,24.6,45.1,74.3,94.8,49.8,49.8,74.8,63.4,94.9,74.3l5.6,3.1c4.8,2.7,10.1,4.1,15.6,4.1,10,0,19.2-4.6,25.3-12.5l30.2-38.8c2.1-2.7,5.3-4.3,8.8-4.3,2.2,0,4.3,.6,6.1,1.8l103.6,69.1h0c4.9,3.1,6.5,9.7,3.4,14.8l-26,43.3c-5.4,9.3-14.5,16.4-24.8,19.3-11.1,3.1-23,4.6-35.4,4.6-30.9,0-65-9.6-101.4-28.5-44.8-23.3-93.3-60.9-144.2-111.9C23.36,216.5,11.36,125.6,25.56,73.6c2.9-10.4,9.8-19.3,19.3-24.9l43.3-26c1.7-1,3.7-1.6,5.7-1.6,3.7,0,7.1,1.9,9.2,5l37.5,56.4,31.5,47.3c3.2,4.8,2.1,11.3-2.5,14.9l-38.8,30.2c-12.5,9.6-16.1,27.2-8.4,40.9Z"/><path d="M292.16,89.4c38.2,0,74.1,15,101.1,42,27,27,41.9,62.9,42,101.1,0,5.8,4.7,10.5,10.5,10.5s10.5-4.7,10.5-10.5c0-43.8-17.1-85-48.1-116s-72.2-48.1-116-48.1h0c-5.8,0-10.5,4.7-10.5,10.5s4.6,10.5,10.5,10.5Z"/><path d="M292.16,140.6c24.5,0,47.6,9.6,64.9,27,17.3,17.3,26.9,40.4,27,64.9,0,5.8,4.7,10.5,10.5,10.5s10.5-4.7,10.5-10.5c0-30.1-11.8-58.5-33.1-79.8-21.3-21.3-49.7-33.1-79.8-33.1-5.8,0-10.5,4.7-10.5,10.5-.1,2.7,1,5.4,2.9,7.3,2,2.1,4.7,3.2,7.6,3.2Z"/><path d="M292.16,191.8c10.9,0,21.1,4.2,28.7,11.9,7.7,7.7,11.9,17.9,12,28.8,0,5.8,4.7,10.5,10.5,10.5s10.5-4.7,10.5-10.5c0-34-27.7-61.7-61.7-61.7-5.8,0-10.5,4.7-10.5,10.5s4.6,10.5,10.5,10.5Z"/></g></g></g></svg>