<?xml version="1.0" encoding="UTF-8"?><svg xmlns="http://www.w3.org/2000/svg" viewBox="0 0 443 505"><defs><style>.d{fill:#284538;}</style></defs><g id="a"/><g id="b"><g id="c"><g><rect class="d" x="125" y="432" width="53" height="23"/><path class="d" d="M398,37.9C372.9,16.4,341.2,3.5,306.2,.6l-3.2-.3v-.3H0V505H303v-242.3l3.2-.3c34.9-2.9,66.7-15.8,91.8-37.3,29-24.9,45-58.1,45-93.6s-16-68.7-45-93.6ZM23,23H205l-9,6.4c-3.8,2.7-7.5,5.6-11,8.6-7.4,6.3-14,13.3-19.7,20.7l-1,1.4H23V23ZM280,482H23v-77H280v77Zm0-100H23V83h127.5l-2,4.8c-5.6,14-8.5,28.7-8.5,43.7,0,35.5,16,68.7,45,93.6,5.2,4.4,10.7,8.6,16.6,12.3l3,1.9-2,3c-9.2,13.9-19.8,26.9-31.5,38.8,26.8-3.3,52.8-10.9,77.2-22.6l1.1-.5,1.2,.3c8.5,2,17.3,3.5,26.1,4.2l3.2,.3v119.2h.1Zm11.5-142c-70.8,0-128.5-48.7-128.5-108.5S220.7,23,291.5,23s128.5,48.7,128.5,108.5-57.6,108.5-128.5,108.5Z"/><circle class="d" cx="291.5" cy="131.5" r="16.5"/><circle class="d" cx="221.5" cy="131.5" r="16.5"/><circle class="d" cx="361.5" cy="131.5" r="16.5"/></g></g></g></svg>