<?xml version="1.0" encoding="UTF-8"?><svg xmlns="http://www.w3.org/2000/svg" viewBox="0 0 95.17 48.11"><defs><style>.d{fill:#284538;}</style></defs><g id="a"/><g id="b"><g id="c"><g><path class="d" d="M59.35,25.13l7.8-7.6c.75-.73,1.02-1.8,.7-2.79-.32-1-1.17-1.72-2.21-1.87l-10.79-1.56L50.03,1.52c-.47-.94-1.4-1.52-2.45-1.52h0c-1.04,0-1.98,.59-2.44,1.52l-4.82,9.77-10.79,1.56c-1.04,.15-1.89,.88-2.21,1.88-.32,1-.04,2.07,.7,2.78l7.8,7.61-1.85,10.79c-.17,1.03,.24,2.05,1.08,2.67,.48,.35,1.04,.53,1.61,.53,.42,0,.84-.1,1.23-.3l9.92-5.02,9.42,4.95c.93,.49,2.04,.41,2.88-.21,.85-.62,1.26-1.64,1.09-2.67l-1.85-10.74Zm-3.09-.27l1.89,10.99-9.63-5.06c-.43-.23-.94-.23-1.38-.01l-10.13,5.13,1.89-11.05c.08-.49-.08-.98-.43-1.33l-7.98-7.78,11.03-1.6c.49-.07,.91-.38,1.13-.82l4.93-9.99,4.93,9.99c.22,.44,.64,.75,1.13,.82l11.04,1.6-7.98,7.78c-.35,.34-.52,.84-.43,1.33Z"/><path class="d" d="M95.06,30.84c-.27-.86-1-1.47-1.9-1.61l-7.12-1.03-3.18-6.46c-.4-.8-1.2-1.3-2.1-1.3h0c-.9,0-1.7,.5-2.09,1.31l-3.18,6.45-7.13,1.03c-.89,.13-1.61,.75-1.89,1.61-.27,.85-.04,1.77,.6,2.38l5.15,5.02-1.22,7.12c-.15,.88,.2,1.75,.91,2.28,.41,.31,.9,.46,1.39,.46,.36,0,.72-.08,1.06-.25l6.56-3.32,6.21,3.27c.8,.42,1.75,.35,2.48-.18,.73-.53,1.08-1.41,.92-2.28l-1.21-7.09,5.15-5.02c.64-.62,.87-1.54,.6-2.39Zm-13.71-7.76h0Zm5.3,13.58c-.35,.35-.51,.84-.43,1.33l1.12,6.56-5.72-3.01c-.43-.23-.94-.23-1.38-.01l-6.08,3.08,1.13-6.61c.08-.49-.08-.98-.43-1.33l-4.76-4.64,6.58-.95c.49-.07,.91-.38,1.13-.82l2.94-5.96,2.94,5.96c.22,.44,.64,.75,1.13,.82l6.58,.95-4.76,4.64Z"/><path class="d" d="M26.82,29.23l-7.12-1.03-3.18-6.46c-.4-.8-1.2-1.3-2.1-1.3h0c-.9,0-1.7,.5-2.09,1.31l-3.18,6.45-7.13,1.03c-.89,.14-1.62,.75-1.89,1.61-.27,.85-.04,1.77,.6,2.38l5.15,5.02-1.22,7.12c-.15,.88,.2,1.75,.91,2.28,.41,.31,.9,.46,1.39,.46,.36,0,.72-.08,1.06-.25l6.56-3.32,6.22,3.27c.8,.42,1.75,.35,2.48-.18,.73-.53,1.08-1.41,.93-2.29l-1.21-7.09,5.15-5.02c.64-.62,.87-1.54,.6-2.39-.27-.85-1-1.47-1.89-1.61Zm-6.51,7.42c-.35,.35-.51,.84-.43,1.33l1.12,6.56-5.72-3.01c-.43-.23-.94-.23-1.38-.01l-6.08,3.07,1.13-6.61c.08-.49-.08-.98-.43-1.33l-4.76-4.64,6.58-.95c.49-.07,.91-.38,1.13-.82l2.94-5.96,2.94,5.96c.22,.44,.64,.75,1.13,.82l6.58,.95-4.76,4.64Z"/></g></g></g></svg>